<?xml version="1.0" standalone="no"?>
<!DOCTYPE svg PUBLIC "-//W3C//DTD SVG 20010904//EN"
 "http://www.w3.org/TR/2001/REC-SVG-20010904/DTD/svg10.dtd">
<svg version="1.0" xmlns="http://www.w3.org/2000/svg"
 width="1024.000000pt" height="1024.000000pt" viewBox="0 0 1024.000000 1024.000000"
 preserveAspectRatio="xMidYMid meet">

<g transform="translate(0.000000,1024.000000) scale(0.100000,-0.100000)"
fill="#000000" stroke="none">
<path d="M8097 6245 c-56 -14 -93 -45 -118 -100 -36 -78 -19 -156 44 -212 138
-121 354 2 308 176 -29 109 -125 165 -234 136z"/>
<path d="M1205 6159 c-205 -30 -374 -150 -463 -329 -75 -153 -86 -212 -86
-470 1 -211 2 -231 27 -322 73 -272 227 -429 472 -479 74 -15 136 -19 351 -19
269 0 351 8 416 41 43 22 85 73 99 120 8 27 12 408 9 762 l0 27 -300 0 -300 0
0 -135 0 -135 155 0 155 0 0 -149 c0 -82 -4 -161 -10 -175 -17 -47 -61 -60
-216 -64 -220 -6 -331 20 -421 101 -93 84 -127 197 -128 422 0 192 17 274 76
365 41 64 85 98 170 133 51 21 71 22 412 25 l357 3 0 145 0 144 -357 -1 c-197
-1 -385 -5 -418 -10z"/>
<path d="M2245 6123 c2 -27 3 -393 4 -815 l1 -768 140 0 140 0 0 815 0 815
-144 0 -143 0 2 -47z"/>
<path d="M3210 5751 c-230 -33 -377 -153 -454 -371 -29 -80 -31 -93 -31 -235
0 -169 11 -222 73 -338 69 -133 202 -229 362 -263 115 -24 312 -15 409 19 180
64 307 200 357 387 24 90 24 291 1 380 -58 214 -202 357 -411 405 -77 18 -234
26 -306 16z m251 -276 c101 -35 167 -125 190 -259 21 -123 -3 -239 -65 -321
-56 -73 -198 -115 -323 -95 -135 22 -218 96 -243 217 -19 88 -9 247 19 310 36
80 105 139 196 164 43 12 172 3 226 -16z"/>
<path d="M3316 5338 c-4 -28 -13 -63 -21 -78 -31 -59 -114 -110 -182 -110 -27
0 -53 -10 -53 -20 0 -4 26 -10 58 -13 93 -8 147 -44 183 -122 10 -22 19 -57
19 -77 0 -21 5 -38 10 -38 6 0 10 11 10 24 0 40 31 122 56 150 35 37 76 56
140 64 60 8 77 25 29 30 -72 7 -133 32 -164 67 -28 33 -61 116 -61 157 0 39
-18 15 -24 -34z"/>
<path d="M8879 5750 c-77 -12 -174 -53 -234 -98 -135 -102 -194 -256 -195
-505 0 -220 41 -353 145 -465 103 -112 229 -157 415 -149 63 2 127 9 143 15
l27 12 0 120 0 120 -132 -2 c-148 -2 -194 10 -252 68 -120 120 -108 467 21
573 112 93 331 72 412 -40 37 -51 51 -93 58 -183 l6 -69 -61 5 c-85 8 -136 39
-167 102 -14 27 -25 61 -25 75 0 54 -16 50 -28 -7 -23 -108 -75 -156 -189
-170 -66 -8 -86 -32 -26 -32 127 0 202 -65 219 -189 7 -54 24 -70 24 -23 0 50
29 127 57 154 41 37 65 47 133 55 l60 6 0 -292 0 -291 135 0 135 0 0 378 c0
227 -4 402 -11 438 -33 183 -172 331 -354 378 -76 19 -243 28 -316 16z"/>
<path d="M3960 5732 c0 -15 55 -196 192 -632 72 -228 140 -448 152 -487 l21
-73 171 0 171 0 15 53 c89 314 192 657 197 657 3 0 25 -64 49 -143 24 -78 73
-238 109 -355 l66 -212 165 2 164 3 18 60 c10 33 73 247 140 475 67 228 137
465 156 526 19 61 34 116 34 122 0 9 -41 12 -162 10 l-162 -3 -93 -375 c-51
-206 -96 -382 -99 -390 -6 -16 -43 106 -160 523 l-69 247 -159 -2 -159 -3 -28
-100 c-15 -55 -60 -217 -100 -360 -39 -143 -76 -279 -82 -302 -6 -24 -13 -43
-16 -43 -4 0 -52 181 -107 403 l-100 402 -162 3 c-91 1 -162 -1 -162 -6z"/>
<path d="M6610 5730 c0 -12 120 -311 332 -825 77 -187 143 -346 145 -352 3 -7
11 -13 19 -13 19 0 18 -3 -11 -61 -39 -76 -71 -91 -180 -86 -49 3 -97 6 -105
8 -13 3 -15 -17 -18 -129 l-3 -132 28 -11 c47 -18 164 -27 237 -18 119 15 208
75 260 176 13 26 74 179 136 338 62 160 150 387 195 505 183 472 225 584 225
597 0 10 -31 13 -150 13 -82 0 -150 -1 -150 -3 0 -5 -318 -849 -322 -852 -2
-2 -76 188 -164 423 l-160 427 -157 3 c-107 2 -157 -1 -157 -8z"/>
<path d="M6125 5716 c-27 -7 -63 -20 -80 -28 -46 -25 -101 -87 -127 -143 -23
-50 -23 -53 -26 -527 l-3 -478 141 0 140 0 0 393 c0 230 4 407 10 428 19 68
35 74 186 74 l134 0 0 148 0 147 -162 -1 c-93 0 -185 -6 -213 -13z"/>
<path d="M8000 5135 l0 -595 140 0 140 0 0 595 0 595 -140 0 -140 0 0 -595z"/>
</g>
</svg>
