<?xml version="1.0" standalone="no"?>
<!DOCTYPE svg PUBLIC "-//W3C//DTD SVG 20010904//EN"
 "http://www.w3.org/TR/2001/REC-SVG-20010904/DTD/svg10.dtd">
<svg version="1.0" xmlns="http://www.w3.org/2000/svg"
 width="1024.000000pt" height="1024.000000pt" viewBox="0 0 1024.000000 1024.000000"
 preserveAspectRatio="xMidYMid meet">

<g transform="translate(0.000000,1024.000000) scale(0.100000,-0.100000)"
fill="#000000" stroke="none">
<path d="M8140 6294 c-65 -24 -93 -42 -117 -77 -25 -36 -28 -49 -28 -122 0
-75 2 -85 29 -119 17 -24 50 -48 83 -63 70 -32 142 -26 202 17 56 41 75 81 76
160 0 82 -31 141 -91 176 -41 24 -124 39 -154 28z m140 -34 c70 -36 112 -138
91 -218 -60 -222 -392 -154 -368 75 15 141 147 209 277 143z"/>
<path d="M1200 6273 c-107 -19 -172 -43 -246 -92 -118 -77 -202 -190 -248
-330 -46 -142 -51 -183 -51 -436 0 -278 13 -352 86 -497 118 -234 341 -337
734 -338 132 0 350 22 411 42 l39 13 3 445 c1 245 0 455 -3 468 l-5 22 -335 0
-335 0 -10 -26 c-15 -38 -13 -267 2 -282 8 -8 67 -12 200 -12 l188 0 0 -159
c0 -178 -2 -185 -66 -197 -20 -4 -95 -5 -168 -2 -116 4 -138 7 -191 32 -100
45 -149 107 -190 236 -27 84 -33 421 -11 524 26 115 66 187 129 230 101 70
144 77 487 84 l305 7 3 120 c1 66 0 130 -3 143 l-5 22 -318 -1 c-235 -1 -339
-5 -402 -16z m715 -128 l0 -130 -305 -6 c-327 -6 -364 -11 -456 -64 -49 -29
-109 -93 -127 -138 -38 -89 -48 -164 -48 -355 0 -215 14 -300 64 -395 56 -107
142 -159 294 -177 115 -14 271 0 290 27 9 12 13 66 13 185 l0 168 -192 2 -193
3 0 145 0 145 330 0 330 0 3 -451 c2 -372 0 -453 -11 -463 -30 -24 -219 -45
-422 -45 -173 -1 -214 2 -305 22 -282 63 -429 210 -497 500 -26 111 -26 479 0
602 23 104 67 222 108 283 95 143 255 237 454 266 33 5 197 8 365 7 l305 -1 0
-130z"/>
<path d="M2142 6278 c-17 -17 -17 -1649 0 -1666 8 -8 57 -12 153 -12 96 0 145
4 153 12 17 17 17 1649 0 1666 -8 8 -57 12 -153 12 -96 0 -145 -4 -153 -12z
m297 -12 c8 -10 10 -235 9 -832 l-3 -819 -150 0 -150 0 -3 819 c-1 597 1 822
9 832 9 11 44 14 144 14 100 0 135 -3 144 -14z"/>
<path d="M3041 5830 c-25 -5 -78 -25 -119 -45 -136 -64 -236 -197 -283 -375
-29 -111 -31 -310 -5 -415 67 -264 241 -409 507 -422 195 -10 344 41 459 157
108 107 148 214 157 421 10 211 -22 354 -106 478 -62 90 -129 140 -250 183
-64 23 -284 34 -360 18z m352 -29 c175 -62 276 -171 329 -356 19 -69 23 -103
23 -240 0 -138 -4 -172 -24 -243 -50 -178 -160 -288 -356 -358 -37 -13 -82
-18 -175 -18 -150 -1 -232 20 -330 85 -108 73 -175 177 -211 327 -18 75 -20
107 -16 227 6 157 20 216 73 323 67 137 182 229 331 267 84 21 279 14 356 -14z"/>
<path d="M3108 5567 c-141 -40 -197 -162 -185 -408 6 -134 25 -190 85 -252 65
-66 182 -85 287 -46 76 28 118 74 145 159 19 60 22 85 18 207 -4 158 -21 213
-86 276 -66 64 -172 89 -264 64z m213 -39 c83 -46 121 -135 127 -298 7 -190
-30 -291 -124 -341 -132 -71 -294 -32 -352 85 -35 69 -48 196 -34 322 12 109
27 150 71 197 70 77 210 92 312 35z"/>
<path d="M3184 5438 c-5 -7 -18 -42 -29 -78 -23 -71 -54 -101 -126 -120 -43
-12 -67 -42 -46 -57 6 -5 32 -15 56 -22 82 -23 99 -45 128 -161 6 -25 14 -35
28 -35 15 0 22 14 35 68 20 80 37 100 108 125 93 33 96 60 8 88 -73 23 -96 49
-116 131 -16 66 -31 86 -46 61z m65 -148 c10 -14 46 -37 81 -51 35 -14 65 -30
67 -36 2 -6 -13 -17 -34 -23 -103 -34 -125 -57 -147 -155 -6 -27 -16 -49 -21
-48 -6 1 -15 23 -21 50 -18 80 -38 108 -93 132 -27 11 -58 21 -69 21 -10 0
-21 3 -25 6 -10 10 5 34 22 34 9 0 39 11 68 24 55 26 72 49 93 126 21 79 33
81 47 9 7 -35 21 -75 32 -89z"/>
<path d="M6111 5830 c-218 -45 -342 -166 -386 -378 -21 -97 -22 -824 -1 -841
9 -8 61 -11 162 -9 l149 3 6 385 c6 415 8 436 60 495 43 49 105 66 228 64 68
-1 106 3 116 11 23 19 22 242 -2 261 -19 17 -263 23 -332 9z m330 -17 c5 -5 8
-63 7 -129 l-3 -119 -130 -6 c-71 -3 -139 -9 -150 -14 -45 -18 -89 -60 -109
-104 -20 -44 -21 -65 -26 -436 l-5 -390 -150 0 -150 0 -3 378 c-2 410 2 464
53 575 64 139 177 221 347 252 65 11 306 6 319 -7z"/>
<path d="M8862 5824 c-284 -76 -440 -353 -403 -716 20 -206 87 -346 209 -439
151 -116 413 -132 575 -35 l54 33 9 -31 9 -31 129 -3 c71 -1 133 1 138 6 4 4
8 172 9 373 1 412 -5 462 -68 589 -89 181 -254 271 -498 269 -62 0 -133 -7
-163 -15z m333 -14 c188 -48 301 -159 362 -356 16 -53 18 -99 18 -449 l0 -390
-123 -3 -122 -3 -10 27 c-6 15 -8 35 -5 45 4 11 2 19 -4 19 -6 0 -11 -4 -11
-8 0 -4 -26 -23 -57 -42 -189 -115 -461 -83 -616 71 -69 69 -108 148 -138 276
-19 81 -21 114 -17 241 5 125 9 158 32 222 68 192 193 311 373 354 87 21 226
20 318 -4z"/>
<path d="M8960 5571 c-139 -30 -200 -141 -200 -365 0 -201 34 -285 136 -336
67 -34 198 -36 259 -3 53 28 89 68 117 128 21 45 23 65 23 200 0 121 -4 160
-19 204 -24 70 -95 145 -152 160 -60 16 -124 21 -164 12z m195 -40 c86 -49
124 -134 132 -300 12 -232 -60 -354 -222 -375 -107 -14 -204 26 -249 104 -59
100 -62 371 -6 480 23 44 65 84 110 105 53 23 183 16 235 -14z"/>
<path d="M9024 5442 c-6 -4 -21 -40 -33 -80 -24 -79 -46 -101 -122 -122 -71
-19 -74 -61 -6 -76 87 -19 116 -51 138 -151 8 -41 15 -53 30 -53 12 0 21 9 25
28 27 120 43 144 117 167 96 31 99 64 10 90 -30 9 -65 27 -78 39 -22 22 -45
82 -45 117 0 23 -23 50 -36 41z m22 -39 c18 -82 26 -101 52 -126 16 -15 52
-35 82 -45 29 -9 55 -22 57 -29 2 -6 -24 -20 -61 -33 -88 -29 -102 -47 -130
-172 -10 -44 -22 -33 -36 33 -18 82 -45 112 -126 139 -36 12 -63 27 -61 33 2
6 26 18 54 28 86 29 101 44 126 125 12 41 25 74 29 74 4 0 10 -12 14 -27z"/>
<path d="M3832 5808 c-18 -18 -15 -40 22 -162 19 -61 71 -235 116 -386 45
-151 104 -351 132 -445 28 -93 57 -180 65 -193 13 -22 17 -22 161 -20 145 3
146 3 159 28 7 14 51 151 98 305 47 154 91 295 97 313 5 19 14 30 18 25 4 -4
54 -147 110 -318 56 -170 108 -320 116 -333 14 -22 18 -22 162 -20 172 3 151
-15 206 173 19 66 78 264 131 440 175 580 168 555 156 582 -11 23 -12 24 -148
21 -135 -3 -137 -3 -150 -28 -7 -14 -47 -153 -88 -310 -42 -157 -86 -320 -97
-363 -13 -46 -24 -73 -29 -65 -6 11 -39 120 -150 488 -16 52 -38 129 -50 170
-31 110 -31 110 -169 110 -82 0 -121 -4 -127 -12 -10 -13 -96 -295 -183 -598
-47 -163 -50 -171 -61 -144 -7 18 -8 18 -7 -1 0 -34 15 -72 21 -55 8 22 47
155 131 442 42 141 84 278 94 305 l18 48 117 3 c114 3 117 2 126 -20 10 -24
27 -80 157 -515 44 -145 82 -263 86 -263 7 0 35 85 68 212 73 281 153 564 162
575 16 19 264 19 271 -1 7 -18 5 -28 -54 -226 -28 -91 -60 -201 -73 -245 -13
-44 -54 -177 -89 -295 -36 -118 -80 -261 -97 -317 l-31 -103 -143 0 c-128 0
-145 2 -151 18 -19 45 -225 668 -225 679 0 19 -17 16 -23 -4 -3 -10 -36 -117
-75 -238 -39 -121 -85 -267 -102 -325 -18 -58 -37 -111 -42 -117 -15 -18 -271
-18 -286 0 -13 15 -27 58 -172 547 -61 206 -127 428 -147 493 -19 64 -32 124
-29 132 4 12 32 15 155 15 l149 0 9 -27 c5 -16 45 -178 89 -361 43 -183 80
-328 82 -322 4 12 -7 63 -94 425 -36 148 -70 275 -76 282 -14 18 -298 19 -316
1z"/>
<path d="M6572 5808 c-19 -19 -15 -41 37 -176 58 -150 299 -746 343 -847 63
-146 69 -173 52 -213 -34 -83 -87 -112 -219 -121 l-90 -6 -3 -131 c-2 -112 0
-133 14 -145 27 -22 223 -16 305 10 129 41 228 128 292 256 22 43 116 280 267
670 205 531 251 657 248 682 l-3 28 -151 3 c-117 2 -154 -1 -162 -11 -6 -7
-57 -144 -112 -303 -192 -551 -183 -529 -192 -508 -4 10 -32 87 -62 169 -167
459 -230 622 -244 638 -13 15 -35 17 -162 17 -100 0 -150 -4 -158 -12z m342
-78 c24 -63 103 -277 258 -698 17 -46 34 -80 38 -75 4 4 40 103 80 218 159
465 211 609 221 622 9 10 46 13 151 13 154 0 160 -3 140 -63 -9 -30 -188 -496
-302 -787 -244 -626 -250 -638 -394 -724 -79 -47 -174 -68 -301 -64 l-100 3 0
130 0 130 90 6 c50 3 106 13 125 21 43 18 84 65 100 113 14 42 11 55 -72 255
-145 349 -378 936 -378 951 0 8 3 19 7 23 4 3 74 5 157 4 l151 -3 29 -75z"/>
<path d="M8025 5808 c-3 -7 -4 -281 -3 -608 l3 -595 144 -3 c109 -2 146 1 153
10 9 15 11 1168 2 1192 -5 14 -28 16 -150 16 -107 0 -146 -3 -149 -12z m290
-598 l0 -595 -140 0 -140 0 -3 585 c-1 322 0 591 3 598 3 9 38 12 142 10 l138
-3 0 -595z"/>
</g>
</svg>
